<?xml version="1.0" encoding="UTF-8"?>
<svg width="1200px" height="620px" viewBox="0 0 1200 620" version="1.1" xmlns="http://www.w3.org/2000/svg" xmlns:xlink="http://www.w3.org/1999/xlink">
    <title>snip-social-cover</title>
    <defs>
        <linearGradient x1="100%" y1="40.3126517%" x2="0%" y2="59.6873483%" id="linearGradient-1">
            <stop stop-color="#32C5FF" offset="0%"></stop>
            <stop stop-color="#B620E0" offset="51.2583893%"></stop>
            <stop stop-color="#F7B500" offset="100%"></stop>
        </linearGradient>
    </defs>
    <g id="snip-social-cover" stroke="none" stroke-width="1" fill="none" fill-rule="evenodd">
        <rect fill="#FFFFFF" x="0" y="0" width="1200" height="620"></rect>
        <path d="M423.2,372.4 C437.066667,372.4 447.7,369.366667 455.1,363.3 C462.5,357.233333 466.2,348.933333 466.2,338.4 C466.2,329.2 463.2,321.933333 457.2,316.6 C451.2,311.266667 442.133333,307.533333 430,305.4 C423.333333,304.2 420,302.133333 420,299.2 C420,297.6 420.866667,296.333333 422.6,295.4 C424.333333,294.466667 427.466667,294 432,294 C435.066667,294 438.9,294.4 443.5,295.2 C448.1,296 452.333333,297.133333 456.2,298.6 L456.2,298.6 L460.4,274.8 C456.266667,272.8 451.7,271.366667 446.7,270.5 C441.7,269.633333 435.733333,269.2 428.8,269.2 C415.2,269.2 404.466667,272 396.6,277.6 C388.733333,283.2 384.533333,291.266667 384,301.8 C384,311.133333 386.433333,318.333333 391.3,323.4 C396.166667,328.466667 404.133333,332.066667 415.2,334.2 C420.533333,335.133333 424.166667,336.2 426.1,337.4 C428.033333,338.6 429,340.133333 429,342 C429,345.733333 425.666667,347.6 419,347.6 C409.933333,347.6 400.6,345.866667 391,342.4 L391,342.4 L386.4,366.2 C396.933333,370.333333 409.2,372.4 423.2,372.4 Z M523.2,370.8 L523.2,324 C523.2,319.066667 524.166667,314.666667 526.1,310.8 C528.033333,306.933333 530.533333,303.966667 533.6,301.9 C536.666667,299.833333 539.8,298.8 543,298.8 C547.4,298.8 550.833333,300.333333 553.3,303.4 C555.766667,306.466667 557,310.866667 557,316.6 L557,316.6 L557,370.8 L599,370.8 L599,320.8 C599,304.666667 595.366667,292.033333 588.1,282.9 C580.833333,273.766667 570.8,269.2 558,269.2 C541.2,269.2 528.933333,276.933333 521.2,292.4 L521.2,292.4 L521.2,272 L481,272 L481,370.8 L523.2,370.8 Z M639.2,255.6 C645.2,255.6 650.466667,253.666667 655,249.8 C659.533333,245.933333 661.8,241.066667 661.8,235.2 C661.8,229.733333 659.566667,225 655.1,221 C650.633333,217 645.333333,215 639.2,215 C633.333333,215 628.133333,216.933333 623.6,220.8 C619.066667,224.666667 616.8,229.466667 616.8,235.2 C616.8,240.933333 618.966667,245.766667 623.3,249.7 C627.633333,253.633333 632.933333,255.6 639.2,255.6 Z M653.6,372.4 C658.666667,372.4 663.566667,371.8 668.3,370.6 C673.033333,369.4 676.866667,367.666667 679.8,365.4 L679.8,365.4 L677.6,337.6 C674.8,339.2 672.066667,340 669.4,340 C666.733333,340 664.566667,339.166667 662.9,337.5 C661.233333,335.833333 660.4,333.466667 660.4,330.4 L660.4,330.4 L660.4,270.6 L618,270.6 L618,332.2 C618,344.6 621.133333,354.4 627.4,361.6 C633.666667,368.8 642.4,372.4 653.6,372.4 Z M691.4,404.8 L733.6,396.8 L733.6,352.2 C740.266667,365.666667 751.2,372.4 766.4,372.4 C774.933333,372.4 782.966667,370.166667 790.5,365.7 C798.033333,361.233333 804.033333,355.066667 808.5,347.2 C812.966667,339.333333 815.2,330.533333 815.2,320.8 C815.2,311.066667 813.033333,302.266667 808.7,294.4 C804.366667,286.533333 798.433333,280.366667 790.9,275.9 C783.366667,271.433333 775.133333,269.2 766.2,269.2 C750.866667,269.2 740,275.933333 733.6,289.4 L733.6,289.4 L733.6,272 L691.4,272 L691.4,404.8 Z M753.6,340.8 C748.266667,340.8 743.633333,338.866667 739.7,335 C735.766667,331.133333 733.8,326.4 733.8,320.8 L733.8,320.8 L733.8,320 C733.8,314.8 735.733333,310.3 739.6,306.5 C743.466667,302.7 748.133333,300.8 753.6,300.8 C758.933333,300.8 763.566667,302.733333 767.5,306.6 C771.433333,310.466667 773.4,315.2 773.4,320.8 C773.4,326.133333 771.466667,330.8 767.6,334.8 C763.733333,338.8 759.066667,340.8 753.6,340.8 Z" id="snip" fill="url(#linearGradient-1)" fill-rule="nonzero"></path>
    </g>
</svg>